<svg xmlns="http://www.w3.org/2000/svg" height="24" viewBox="0 -960 960 960" width="24"><path d="m480-180.615-27.846-25.423q-96.856-88.504-160.236-151.502-63.38-62.998-100.126-110.938-36.746-47.941-51.192-86.784-14.446-38.843-14.446-78.123 0-74.467 50.612-125.079 50.613-50.613 125.08-50.613 52.194 0 97.905 27T480-702.923q35.269-52.154 80.577-79.154 45.308-27 97.577-27 74.467 0 125.08 50.57 50.612 50.571 50.612 124.975 0 39.416-14.446 78.265-14.446 38.848-51.165 86.745-36.718 47.896-99.882 110.981-63.164 63.085-160.507 151.503L480-180.615Z"/></svg>