<?xml version="1.0" encoding="iso-8859-1"?>
<!-- Uploaded to: SVG Repo, www.svgrepo.com, Generator: SVG Repo Mixer Tools -->
<!DOCTYPE svg PUBLIC "-//W3C//DTD SVG 1.1//EN" "http://www.w3.org/Graphics/SVG/1.1/DTD/svg11.dtd">
<svg fill="#000000" height="800px" width="800px" version="1.1" id="Capa_1" xmlns="http://www.w3.org/2000/svg" xmlns:xlink="http://www.w3.org/1999/xlink" 
	 viewBox="0 0 57.04 57.04" xml:space="preserve">
<g>
	<path d="M53.04,31.047h-1.422c1.991-6.638,1.511-13.291-1.35-18.556c0.853-0.923,1.319-2.119,1.319-3.389
		c0-1.339-0.519-2.594-1.46-3.535c-1.837-1.837-4.759-1.942-6.721-0.319c-9.68-5.979-23.661-3.24-33.584,6.683
		c-9.924,9.924-12.659,23.906-6.684,33.584c-1.624,1.962-1.518,4.884,0.319,6.72c1.9,1.901,4.966,1.949,6.925,0.141
		c3.126,1.699,6.744,2.558,10.559,2.558c2.901,0,5.913-0.509,8.909-1.51c1.665,0.404,3.402,0.624,5.189,0.624
		c12.131,0,22-9.869,22-22v-1H53.04z M23.047,42.626c-2.286-2.588-3.749-5.919-3.976-9.579h13.555L23.047,42.626z M34.04,34.461
		v13.537c-3.658-0.228-6.981-1.685-9.568-3.969L34.04,34.461z M36.04,34.461l9.568,9.568c-2.587,2.284-5.91,3.741-9.568,3.969
		V34.461z M47.033,42.626l-9.579-9.579h13.497h0.058C50.782,36.707,49.319,40.038,47.033,42.626z M10.732,50.273l-0.669-0.399
		l-0.947,0.947c-1.171,1.17-3.074,1.169-4.243,0c-1.17-1.17-1.17-3.073,0.001-4.243l0.82-0.823l-0.46-0.683
		c-5.907-8.759-3.326-22.399,6.003-31.728c9.329-9.33,22.971-11.909,31.728-6.002l0.684,0.461l0.822-0.822
		c1.171-1.171,3.074-1.169,4.243,0c0.563,0.563,0.874,1.317,0.874,2.121c0,0.805-0.311,1.558-0.874,2.122l-0.947,0.947l0.399,0.668
		c2.999,5.027,3.484,11.629,1.358,18.208H17.04h-4v1c0,0.5,0.023,0.994,0.056,1.486c0.008,0.123,0.018,0.245,0.028,0.368
		c0.039,0.469,0.089,0.935,0.158,1.396c0.003,0.021,0.005,0.042,0.008,0.063c0.073,0.484,0.167,0.96,0.272,1.433
		c0.025,0.113,0.051,0.225,0.078,0.338c0.102,0.428,0.213,0.852,0.34,1.27c0.014,0.046,0.025,0.093,0.04,0.14
		c0.138,0.446,0.294,0.885,0.459,1.318c0.049,0.128,0.099,0.254,0.15,0.381c0.141,0.349,0.29,0.695,0.448,1.035
		c0.044,0.095,0.084,0.191,0.129,0.285c0.187,0.389,0.388,0.769,0.597,1.144c0.087,0.156,0.176,0.31,0.267,0.463
		c0.153,0.261,0.313,0.517,0.476,0.771c0.112,0.174,0.224,0.348,0.341,0.519c0.203,0.296,0.413,0.586,0.63,0.871
		c0.124,0.164,0.252,0.324,0.38,0.484c0.173,0.215,0.35,0.425,0.53,0.632c0.147,0.169,0.294,0.338,0.446,0.503
		c0.246,0.267,0.499,0.527,0.758,0.781c0.127,0.124,0.255,0.246,0.385,0.367c0.267,0.251,0.541,0.495,0.82,0.732
		c0.066,0.055,0.128,0.114,0.194,0.168c0.37,0.306,0.752,0.596,1.142,0.878c0.06,0.043,0.119,0.085,0.179,0.128
		c1.278,0.906,2.653,1.684,4.112,2.303C20.728,53.593,15.124,52.894,10.732,50.273z M35.04,52.047c-1.708,0-3.357-0.237-4.941-0.641
		c-0.521-0.133-1.032-0.286-1.533-0.457c-0.031-0.01-0.061-0.022-0.091-0.032c-0.485-0.168-0.962-0.353-1.428-0.555
		c-0.043-0.019-0.084-0.04-0.126-0.059c-1.158-0.513-2.246-1.138-3.269-1.846c-0.293-0.204-0.586-0.405-0.867-0.624
		c-0.162-0.125-0.315-0.26-0.473-0.39c-0.303-0.251-0.602-0.506-0.89-0.774c-0.137-0.127-0.27-0.258-0.403-0.389
		c-0.297-0.293-0.586-0.594-0.864-0.905c-0.111-0.124-0.222-0.247-0.33-0.373c-0.299-0.35-0.584-0.713-0.858-1.083
		c-0.074-0.099-0.152-0.195-0.223-0.296c-0.683-0.959-1.283-1.98-1.791-3.053c-0.066-0.14-0.123-0.285-0.186-0.427
		c-0.173-0.389-0.337-0.782-0.485-1.184c-0.073-0.198-0.139-0.398-0.206-0.599c-0.121-0.361-0.231-0.727-0.331-1.097
		c-0.058-0.215-0.115-0.43-0.166-0.647c-0.091-0.389-0.167-0.784-0.235-1.181c-0.033-0.195-0.073-0.388-0.101-0.585
		c-0.084-0.594-0.148-1.194-0.178-1.803h2.026c0.524,9.459,8.362,17,17.949,17s17.426-7.541,17.949-17h2.026
		C54.493,43.612,45.733,52.047,35.04,52.047z"/>
	<path d="M29.9,12.383c0.152-0.023,0.304-0.042,0.443-0.06h0.139c0.129,0.001,0.259,0.013,0.376,0.024l0.179,0.028
		c0.104,0.017,0.2,0.025,0.288,0.027c0.185,0.025,0.365,0.037,0.542,0.037c1.387,0,2.536-0.752,2.998-2.034
		c0.3-0.831,0.206-1.859-0.245-2.683c-0.397-0.726-1.024-1.219-1.768-1.387c-1.401-0.317-2.665-0.373-3.979-0.173
		c-0.812,0.123-1.531,0.569-2.027,1.256c-0.501,0.694-0.708,1.564-0.566,2.388C26.569,11.484,28.191,12.638,29.9,12.383z
		 M28.469,8.589c0.179-0.248,0.429-0.407,0.704-0.449c1.059-0.161,2.089-0.113,3.239,0.146c0.224,0.051,0.37,0.244,0.454,0.396
		c0.176,0.321,0.225,0.75,0.118,1.044v0c-0.308,0.85-1.216,0.741-1.593,0.656l-0.005,0.022l-0.026-0.004
		c-0.126-0.021-0.259-0.04-0.309-0.045c-0.182-0.016-0.362-0.031-0.527-0.033l-0.14-0.001l-0.243,0.013
		c-0.182,0.02-0.36,0.042-0.541,0.07c-0.636,0.098-1.243-0.324-1.35-0.938C28.2,9.171,28.279,8.851,28.469,8.589z"/>
</g>
</svg>