<svg xmlns="http://www.w3.org/2000/svg" height="24" viewBox="0 -960 960 960" width="24"><path d="m480-180.615-27.846-25.423q-96.856-88.504-160.236-151.502-63.38-62.998-100.126-110.938-36.746-47.941-51.192-86.784-14.446-38.843-14.446-78.123 0-74.467 50.612-125.079 50.613-50.613 125.08-50.613 52.194 0 97.905 27T480-702.923q35.269-52.154 80.577-79.154 45.308-27 97.577-27 74.467 0 125.08 50.57 50.612 50.571 50.612 124.975 0 39.416-14.446 78.265-14.446 38.848-51.165 86.745-36.718 47.896-99.882 110.981-63.164 63.085-160.507 151.503L480-180.615Zm0-49.847q94.632-86.21 156.041-147.41 61.408-61.2 97.145-106.433 35.737-45.233 49.737-80.11t14-68.873q0-59.597-39.743-99.231-39.743-39.635-98.78-39.635-47.785 0-87.919 27.269-40.135 27.27-72.789 82.846h-35.384q-33.423-56.346-73.173-83.23-39.75-26.885-87.535-26.885-58.268 0-98.396 39.635-40.127 39.634-40.127 99.272 0 34.019 14.054 68.92t49.692 80.037q35.639 45.136 97.023 106.213Q385.231-317 480-230.462Zm0-271.038Z"/></svg>