<svg xmlns="http://www.w3.org/2000/svg" height="24" viewBox="0 -960 960 960" width="24"><path d="M267.587-89.23q-25.832 0-43.633-17.801-17.8-17.801-17.8-43.604v-386.114q0-25.804 17.8-43.605 17.801-17.8 43.738-17.8h86.347v36.923h-86.347q-9.231 0-16.923 7.692-7.692 7.693-7.692 16.923v385.847q0 9.231 7.692 16.923 7.692 7.692 16.923 7.692h424.616q9.231 0 16.923-7.692 7.692-7.692 7.692-16.923v-385.847q0-9.23-7.692-16.923-7.692-7.692-16.923-7.692h-85.962v-36.923h85.962q25.937 0 43.738 17.8 17.8 17.801 17.8 43.605v386.114q0 25.803-17.8 43.604-17.801 17.8-43.632 17.8H267.587Zm194.144-255.578v-426.846l-84.616 84.615-26.346-26.192L480-842.462l129.231 129.231-25.962 26.192-84.615-84.615v426.846h-36.923Z"/></svg>